<svg width="720" height="720" viewBox="0 0 720 720" fill="none" xmlns="http://www.w3.org/2000/svg">
<path d="M579.685 257.159C614.23 268.675 627.439 292.767 628.714 299.442C629.989 306.117 604.518 310.436 579.685 309.338C554.851 308.239 560.351 308.682 549.097 308.558M579.685 257.159C594.079 253.561 615.85 231.189 581.304 186.207C546.758 141.226 476.348 110.489 445.461 100.743C404.634 87.8609 360.115 84.3276 317.137 88.1957M579.685 257.159C549.774 247.189 518.57 241.32 461.257 241.792M134.82 324.182C150.472 314.391 177.398 300.046 210.839 286.267M134.82 324.182C100.485 308.738 51.3379 238.42 145.759 154.153C182.606 121.268 240.621 97.729 303.193 89.7158M134.82 324.182C137.669 335.127 141.657 357.737 134.82 360.616M210.839 286.267C244.125 315.374 311.417 316.203 374.39 310.805C426.21 306.364 496.816 307.984 549.097 308.558M210.839 286.267C216.467 283.948 222.279 281.645 228.254 279.382M549.097 308.558C555.395 354.699 559.861 444.417 544.149 512.203C528.438 579.989 488.823 632.753 451.938 653.444C415.053 674.135 339.62 693.522 276.061 653.444C212.503 613.366 180.914 537.518 167.207 498.259M167.207 498.259C153.5 459 115 464 109.5 424.5C104 385 126.274 364.215 134.82 360.616M167.207 498.259C167.207 498.259 165.557 482.269 164.5 468.5M134.82 360.616C134.82 360.616 153.5 348.5 167.5 357C181.5 365.5 178.5 346.5 175 334.5C171.5 322.5 162.5 308.594 162.5 308.594M271.383 407.515C274.832 401.218 287.359 389.045 303.193 389.405C319.026 389.764 328.81 399.418 332.558 404.366M303.193 524.348C328.382 555.835 344.433 516.701 380.418 516.701C425.399 516.701 427.198 548.638 459.135 524.348M461.257 241.792C435.825 242.002 410.87 243.03 367.373 246.364C323.877 249.698 269.415 263.795 228.254 279.382M461.257 241.792C458.858 203.354 427.971 115.677 317.137 88.1957M317.137 88.1957C312.469 88.6159 307.818 89.1234 303.193 89.7158M303.193 89.7158C260.311 119.492 183.992 202.255 228.254 279.382" stroke="#2b2b2c" stroke-width="36" stroke-linecap="round"/>
<circle cx="453.88" cy="396.601" r="22.4906" fill="#2b2b2c"/>
<circle cx="161.491" cy="339.491" r="22.4906" fill="#2b2b2c"/>
<ellipse cx="312.833" cy="71.1647" rx="31.0696" ry="24.4126" transform="rotate(-7.30429 312.833 71.1647)" fill="#2b2b2c"/>
</svg>
