<svg width="824" height="824" viewBox="0 0 824 824" fill="none" xmlns="http://www.w3.org/2000/svg">
<path d="M631.685 309.159C666.23 320.675 679.439 344.767 680.714 351.442C681.989 358.117 656.518 362.436 631.685 361.338C606.851 360.239 612.351 360.682 601.097 360.558M631.685 309.159C646.079 305.561 667.85 283.189 633.304 238.207C598.758 193.226 528.348 162.489 497.461 152.743C456.634 139.861 412.115 136.328 369.137 140.196M631.685 309.159C601.774 299.189 570.57 293.32 513.257 293.792M186.82 376.182C202.472 366.391 229.398 352.046 262.839 338.267M186.82 376.182C152.485 360.738 103.338 290.42 197.759 206.153C234.606 173.268 292.621 149.729 355.193 141.716M186.82 376.182C189.669 387.127 193.657 409.737 186.82 412.616M262.839 338.267C296.125 367.374 363.417 368.203 426.39 362.805C478.21 358.364 548.816 359.984 601.097 360.558M262.839 338.267C268.467 335.948 274.279 333.645 280.254 331.382M601.097 360.558C607.395 406.699 611.861 496.417 596.149 564.203C580.438 631.989 540.823 684.753 503.938 705.444C467.053 726.135 391.62 745.522 328.061 705.444C264.503 665.366 232.914 589.518 219.207 550.259M219.207 550.259C205.5 511 167 516 161.5 476.5C156 437 178.274 416.215 186.82 412.616M219.207 550.259C219.207 550.259 217.557 534.269 216.5 520.5M186.82 412.616C186.82 412.616 205.5 400.5 219.5 409C233.5 417.5 230.5 398.5 227 386.5C223.5 374.5 214.5 360.594 214.5 360.594M323.383 459.515C326.832 453.218 339.359 441.045 355.193 441.405C371.026 441.764 380.81 451.418 384.558 456.366M355.193 576.348C380.382 607.835 396.433 568.701 432.418 568.701C477.399 568.701 479.198 600.638 511.135 576.348M513.257 293.792C487.825 294.002 462.87 295.03 419.373 298.364C375.877 301.698 321.415 315.795 280.254 331.382M513.257 293.792C510.858 255.354 479.971 167.677 369.137 140.196M369.137 140.196C364.469 140.616 359.818 141.123 355.193 141.716M355.193 141.716C312.311 171.492 235.992 254.255 280.254 331.382" stroke="#516f76" stroke-width="27.8884" stroke-linecap="round"/>
<circle cx="505.88" cy="448.601" r="22.4906" fill="#516f76"/>
<circle cx="213.491" cy="391.491" r="22.4906" fill="#516f76"/>
<ellipse cx="364.833" cy="123.165" rx="31.0696" ry="24.4126" transform="rotate(-7.30429 364.833 123.165)" fill="#516f76"/>
</svg>
