<svg width="24" height="24" viewBox="0 0 24 24" fill="none" xmlns="http://www.w3.org/2000/svg">
<path d="M1.59375 17.55C1.59375 18.0966 1.70142 18.6379 1.9106 19.1429C2.11979 19.6479 2.42639 20.1068 2.81292 20.4933C3.19944 20.8799 3.65831 21.1865 4.16333 21.3957C4.66835 21.6048 5.20962 21.7125 5.75625 21.7125C6.30288 21.7125 6.84415 21.6048 7.34917 21.3957C7.85419 21.1865 8.31306 20.8799 8.69958 20.4933C9.08611 20.1068 9.39271 19.6479 9.6019 19.1429C9.81108 18.6379 9.91875 18.0966 9.91875 17.55C9.91875 17.0034 9.81108 16.4621 9.6019 15.9571C9.39271 15.4521 9.08611 14.9932 8.69958 14.6067C8.31306 14.2202 7.85419 13.9135 7.34917 13.7044C6.84415 13.4952 6.30288 13.3875 5.75625 13.3875C5.20962 13.3875 4.66835 13.4952 4.16333 13.7044C3.65831 13.9135 3.19944 14.2202 2.81292 14.6067C2.42639 14.9932 2.11979 15.4521 1.9106 15.9571C1.70142 16.4621 1.59375 17.0034 1.59375 17.55Z" stroke="#FFF1F3" stroke-width="2" stroke-linecap="round" stroke-linejoin="round"/>
<path d="M9.91875 17.55V4.71563C9.91961 4.12762 9.70707 3.55928 9.32059 3.11613C8.9341 2.67298 8.39994 2.38513 7.81728 2.30603C7.23463 2.22693 6.64306 2.36194 6.15241 2.68601C5.66177 3.01008 5.30539 3.50118 5.14945 4.06813L1.74268 16.4446" stroke="#FFF1F3" stroke-width="2" stroke-linecap="round" stroke-linejoin="round"/>
<path d="M14.0813 17.55C14.0813 18.654 14.5198 19.7127 15.3005 20.4933C16.0811 21.274 17.1398 21.7125 18.2438 21.7125C19.3478 21.7125 20.4065 21.274 21.1871 20.4933C21.9677 19.7127 22.4063 18.654 22.4063 17.55C22.4063 16.446 21.9677 15.3873 21.1871 14.6067C20.4065 13.8261 19.3478 13.3875 18.2438 13.3875C17.1398 13.3875 16.0811 13.8261 15.3005 14.6067C14.5198 15.3873 14.0813 16.446 14.0813 17.55Z" stroke="#FFF1F3" stroke-width="2" stroke-linecap="round" stroke-linejoin="round"/>
<path d="M14.0813 17.55V4.71563C14.0804 4.12762 14.293 3.55928 14.6795 3.11613C15.0659 2.67298 15.6001 2.38513 16.1828 2.30603C16.7654 2.22693 17.357 2.36194 17.8476 2.68601C18.3383 3.01008 18.6947 3.50118 18.8506 4.06813L22.2574 16.4419" stroke="#FFF1F3" stroke-width="2" stroke-linecap="round" stroke-linejoin="round"/>
<path d="M9.9187 9.22501H14.0812V12H9.9187V9.22501Z" stroke="#FFF1F3" stroke-width="2" stroke-linecap="round" stroke-linejoin="round"/>
</svg>
