<svg width="96" height="96" viewBox="0 0 96 96" fill="none" xmlns="http://www.w3.org/2000/svg">
<path d="M53.3909 12.1793C54.8829 10.8743 56.7981 10.1553 58.7809 10.1553C60.7633 10.1553 62.6785 10.8743 64.1709 12.1793L69.5609 26.5526L74.9509 31.9426L85.7309 57.096L53.3909 67.876V12.1793Z" fill="#C1D4D9"/>
<path d="M42.6096 12.1793C41.1164 10.8758 39.2014 10.1575 37.2195 10.1575C35.2377 10.1575 33.3226 10.8758 31.8295 12.1793L26.4395 26.5526L21.0495 31.9426L10.2695 57.096L42.6096 67.876V12.1793Z" fill="#E4F1F5"/>
<path d="M24.6424 85.842C28.1958 85.842 31.6696 84.7888 34.6242 82.8144C37.5788 80.84 39.8815 78.0344 41.2416 74.7512C42.6012 71.468 42.9576 67.856 42.2636 64.3708C41.5708 60.8852 39.8595 57.684 37.3467 55.1716C34.8343 52.6584 31.6329 50.9476 28.1474 50.254C24.6622 49.5608 21.0498 49.9168 17.7671 51.2764C14.4839 52.6364 11.6778 54.9392 9.7037 57.894C7.72958 60.8488 6.67578 64.322 6.67578 67.8756C6.67578 72.6408 8.5685 77.2108 11.9382 80.5796C15.3075 83.9496 19.8772 85.842 24.6424 85.842Z" fill="#66E1FF"/>
<path d="M37.3491 55.1699C33.9791 51.7999 29.4086 49.9067 24.6431 49.9067C19.8775 49.9067 15.307 51.7999 11.9369 55.1699C8.56727 58.5395 6.67383 63.1099 6.67383 67.8759C6.67383 70.2355 7.13875 72.5719 8.04187 74.7523C8.94495 76.9327 10.2683 78.9131 11.9369 80.5815L37.3491 55.1699Z" fill="#C2F3FF"/>
<path d="M42.6096 26.5526V12.1793C41.1164 10.8758 39.2014 10.1575 37.2195 10.1575C35.2377 10.1575 33.3226 10.8758 31.8295 12.1793L26.4395 26.5526L21.0495 31.9426L10.2695 57.096" stroke="#191919" stroke-width="4" stroke-linecap="round" stroke-linejoin="round"/>
<path d="M71.3573 85.842C74.9109 85.842 78.3845 84.7888 81.3393 82.8144C84.2937 80.84 86.5969 78.0344 87.9565 74.7512C89.3161 71.468 89.6725 67.856 88.9785 64.3708C88.2857 60.8852 86.5745 57.684 84.0617 55.1716C81.5493 52.6584 78.3477 50.9476 74.8629 50.254C71.3773 49.5608 67.7649 49.9168 64.4821 51.2764C61.1989 52.6364 58.3933 54.9392 56.4185 57.894C54.4441 60.8488 53.3909 64.322 53.3909 67.8756C53.3909 72.6408 55.2837 77.2108 58.6533 80.5796C62.0225 83.9496 66.5921 85.842 71.3573 85.842Z" fill="#66E1FF"/>
<path d="M84.0619 55.1699C80.6919 51.7999 76.1215 49.9067 71.3559 49.9067C66.5899 49.9067 62.0199 51.7999 58.6499 55.1699C55.2799 58.5395 53.3867 63.1099 53.3867 67.8759C53.3867 72.6411 55.2799 77.2119 58.6499 80.5815L84.0619 55.1699Z" fill="#C2F3FF"/>
<path d="M53.3909 26.5521V12.4053C54.8829 11.1004 56.7981 10.3813 58.7809 10.3813C60.7633 10.3813 62.6785 11.1004 64.1709 12.4053L69.5609 26.5521L74.9509 31.9421L85.7309 57.0956" stroke="#191919" stroke-width="4" stroke-linecap="round" stroke-linejoin="round"/>
<path d="M33.627 40.926C33.627 36.9733 40.0628 33.7393 48.0004 33.7393C55.938 33.7393 62.3736 36.9553 62.3736 40.926" stroke="#191919" stroke-width="4" stroke-linecap="round" stroke-linejoin="round"/>
<path d="M42.6091 67.8936V34.2783" stroke="#191919" stroke-width="4" stroke-linecap="round" stroke-linejoin="round"/>
<path d="M53.3909 67.8936V34.2783" stroke="#191919" stroke-width="4" stroke-linecap="round" stroke-linejoin="round"/>
<path d="M24.6424 85.842C28.1958 85.842 31.6696 84.7888 34.6242 82.8144C37.5788 80.84 39.8815 78.0344 41.2416 74.7512C42.6012 71.468 42.9576 67.856 42.2636 64.3708C41.5708 60.8852 39.8595 57.684 37.3467 55.1716C34.8343 52.6584 31.6329 50.9476 28.1474 50.254C24.6622 49.5608 21.0498 49.9168 17.7671 51.2764C14.4839 52.6364 11.6778 54.9392 9.7037 57.894C7.72958 60.8488 6.67578 64.322 6.67578 67.8756C6.67578 72.6408 8.5685 77.2108 11.9382 80.5796C15.3075 83.9496 19.8772 85.842 24.6424 85.842Z" stroke="#191919" stroke-width="4" stroke-linecap="round" stroke-linejoin="round"/>
<path d="M71.3573 85.842C74.9109 85.842 78.3845 84.7888 81.3393 82.8144C84.2937 80.84 86.5969 78.0344 87.9565 74.7512C89.3161 71.468 89.6725 67.856 88.9785 64.3708C88.2857 60.8852 86.5745 57.684 84.0617 55.1716C81.5493 52.6584 78.3477 50.9476 74.8629 50.254C71.3773 49.5608 67.7649 49.9168 64.4821 51.2764C61.1989 52.6364 58.3933 54.9392 56.4185 57.894C54.4441 60.8488 53.3909 64.322 53.3909 67.8756C53.3909 72.6408 55.2837 77.2108 58.6533 80.5796C62.0225 83.9496 66.5921 85.842 71.3573 85.842Z" stroke="#191919" stroke-width="4" stroke-linecap="round" stroke-linejoin="round"/>
</svg>
