<svg width="96" height="96" viewBox="0 0 96 96" fill="none" xmlns="http://www.w3.org/2000/svg">
<path d="M41.73 78.687V69.4088C47.0668 69.4384 49.7832 69.054 51.6537 67.1809C54.0554 64.7792 53.8233 54.6714 53.8233 54.6714C53.8233 54.6714 56.0995 54.7568 57.8258 54.6873C58.1268 54.675 58.4211 54.595 58.6867 54.4533C58.9523 54.3113 59.1827 54.1112 59.3601 53.8682C59.6003 53.3424 59.6966 52.7607 59.6271 52.1871C59.9365 47.9015 53.9034 40.5475 53.9034 38.4101C53.9087 24.9853 41.2309 17.3136 29.7221 17.3136C26.3702 17.2819 23.0457 17.9215 19.9447 19.1947C16.8438 20.468 14.0291 22.3491 11.6666 24.7273C9.30405 27.1055 7.44153 29.9326 6.18879 33.0419C4.93606 36.1512 4.31847 39.4798 4.37239 42.8317C4.37239 50.9516 7.04078 58.5751 15.046 63.3168V78.687H41.73Z" fill="#FFD6DB"/>
<path d="M34.3734 26.5864C38.2246 26.9956 41.9481 28.2037 45.3059 30.1334C48.6636 32.0632 51.582 34.6722 53.8743 37.7936C53.4793 24.7558 41.0498 17.3136 29.7251 17.3136C26.3733 17.2819 23.0491 17.9214 19.9483 19.1945C16.8475 20.4676 14.0329 22.3485 11.6704 24.7264C9.30794 27.1043 7.44537 29.931 6.19249 33.04C4.93959 36.1491 4.32171 39.4774 4.37528 42.8289C4.36995 44.7848 4.54872 46.7354 4.90896 48.6567C6.0183 41.8844 9.70554 35.8041 15.1981 31.6899C20.6907 27.5757 27.5625 25.7468 34.3734 26.5864Z" fill="#FFF1F3"/>
<path d="M41.73 78.6869V69.4088C47.0668 69.4384 49.7832 69.054 51.6537 67.1809C54.0554 64.7792 53.8233 54.6714 53.8233 54.6714C53.8233 54.6714 56.0995 54.7568 57.8258 54.6873C58.1268 54.675 58.4211 54.595 58.6867 54.4533C58.9523 54.3113 59.1827 54.1112 59.3601 53.8682C59.6003 53.3424 59.6966 52.7607 59.6271 52.1871C59.9365 47.9015 53.9034 40.5475 53.9034 38.4101C53.9087 24.9853 41.2309 17.3136 29.7221 17.3136C26.3702 17.2819 23.0457 17.9215 19.9447 19.1947C16.8438 20.468 14.0291 22.3491 11.6666 24.7273C9.30405 27.1055 7.44153 29.9326 6.18879 33.0419C4.93606 36.1512 4.31847 39.4798 4.37239 42.8317C4.37239 50.9516 7.04078 58.5751 15.046 63.3168V78.6869" stroke="#191919" stroke-width="3" stroke-linecap="round" stroke-linejoin="round"/>
<path d="M63.9875 60.4605H86.3374C87.4706 60.4605 88.5783 60.1243 89.5207 59.4947C90.463 58.8652 91.1976 57.97 91.6312 56.9229C92.065 55.8761 92.1786 54.7237 91.9574 53.6123C91.7362 52.5008 91.1905 51.4798 90.3892 50.6782C89.5877 49.8769 88.5666 49.3312 87.4551 49.11C86.3437 48.8891 85.1916 49.0024 84.1445 49.4362C83.0974 49.8698 82.2023 50.6044 81.5727 51.5467C80.9431 52.4891 80.6069 53.5968 80.6069 54.7303" stroke="#191919" stroke-width="3" stroke-linecap="round" stroke-linejoin="round"/>
<path d="M74.8699 72.6189C74.8699 73.7521 75.206 74.8601 75.8356 75.8025C76.4653 76.7448 77.3602 77.4791 78.4073 77.913C79.4543 78.3465 80.6065 78.4601 81.718 78.2389C82.8295 78.018 83.8506 77.472 84.6521 76.6707C85.4534 75.8694 85.9991 74.8484 86.2203 73.7366C86.4413 72.6252 86.3279 71.4731 85.8941 70.426C85.4606 69.3789 84.726 68.4841 83.7836 67.8542C82.8413 67.2246 81.7335 66.8887 80.6001 66.8887H63.9875" stroke="#191919" stroke-width="3" stroke-linecap="round" stroke-linejoin="round"/>
</svg>
