<svg width="24" height="24" viewBox="0 0 24 24" fill="none" xmlns="http://www.w3.org/2000/svg">
<g clip-path="url(#clip0_3137_14138)">
<path d="M9.43126 19.117C7.7535 18.9345 6.16378 18.2727 4.85211 17.2108C3.54044 16.1488 2.5623 14.7317 2.03461 13.1286C1.50691 11.5256 1.45199 9.80452 1.8764 8.17111C2.30081 6.53769 3.1866 5.06103 4.4279 3.91763C5.66919 2.77424 7.21348 2.01246 8.87619 1.72337C10.5389 1.43427 12.2497 1.63008 13.8041 2.2874C15.3585 2.94471 16.6907 4.03571 17.6415 5.43002C18.5924 6.82432 19.1216 8.46293 19.166 10.15" stroke="#F4FCFA" stroke-width="2" stroke-linecap="round" stroke-linejoin="round"/>
<path d="M7.3252 8.85222L10.3814 10.3803L10.3823 5.10782" stroke="#F4FCFA" stroke-width="2" stroke-linecap="round" stroke-linejoin="round"/>
<path d="M15.9312 22.4072C14.9499 22.4072 14.0088 22.0173 13.3149 21.3235C12.621 20.6296 12.2312 19.6885 12.2312 18.7072V15.9322H19.6312V18.7072C19.6312 19.6885 19.2414 20.6296 18.5475 21.3235C17.8536 22.0173 16.9125 22.4072 15.9312 22.4072Z" stroke="#F4FCFA" stroke-width="2" stroke-linecap="round" stroke-linejoin="round"/>
<path d="M19.6313 16.8572H20.5563C21.0469 16.8572 21.5175 17.0521 21.8644 17.399C22.2114 17.746 22.4063 18.2165 22.4063 18.7072C22.4063 19.1978 22.2114 19.6684 21.8644 20.0153C21.5175 20.3623 21.0469 20.5572 20.5563 20.5572H19.1355" stroke="#F4FCFA" stroke-width="2" stroke-linecap="round" stroke-linejoin="round"/>
<path d="M14.7749 12.4024V13.3274" stroke="#F4FCFA" stroke-width="2" stroke-linecap="round" stroke-linejoin="round"/>
<path d="M17.55 11.4774V13.3274" stroke="#F4FCFA" stroke-width="2" stroke-linecap="round" stroke-linejoin="round"/>
</g>
<defs>
<clipPath id="clip0_3137_14138">
<rect width="24" height="24" fill="white"/>
</clipPath>
</defs>
</svg>
