<svg width="96" height="96" viewBox="0 0 96 96" fill="none" xmlns="http://www.w3.org/2000/svg">
<path d="M72.8636 90.084C83.428 90.084 91.9924 81.5197 91.9924 70.9549C91.9924 60.3905 83.428 51.826 72.8636 51.826C62.2988 51.826 53.7344 60.3905 53.7344 70.9549C53.7344 81.5197 62.2988 90.084 72.8636 90.084Z" fill="#FAFBFC"/>
<path d="M82.0169 54.152C83.9961 57.7792 84.7473 61.9496 84.1585 66.0396C83.5701 70.1296 81.6729 73.9188 78.7513 76.8408C75.8293 79.7624 72.0401 81.6596 67.9501 82.2484C63.8605 82.8368 59.6897 82.0856 56.0625 80.1064C57.4865 82.7164 59.4993 84.9584 61.9413 86.6548C64.3829 88.3508 67.1865 89.4548 70.1293 89.8784C73.0721 90.3016 76.0733 90.0336 78.8945 89.0952C81.7153 88.1564 84.2789 86.5728 86.3809 84.4704C88.4833 82.368 90.0669 79.8048 91.0053 76.9836C91.9441 74.1624 92.2125 71.1616 91.7889 68.2188C91.3649 65.276 90.2613 62.4724 88.5653 60.0308C86.8689 57.5892 84.6269 55.576 82.0169 54.152Z" fill="#E9EAEA"/>
<path d="M57.5609 25.0451C62.8429 25.0451 67.1253 20.7629 67.1253 15.4806C67.1253 10.1982 62.8429 5.91602 57.5609 5.91602C52.2785 5.91602 47.9961 10.1982 47.9961 15.4806C47.9961 20.7629 52.2785 25.0451 57.5609 25.0451Z" fill="#FAFBFC" stroke="#191919" stroke-width="3" stroke-linecap="round" stroke-linejoin="round"/>
<path d="M58.8695 57.9204C56.2087 60.7792 54.4867 64.3837 53.9343 68.2497C53.3823 72.1157 54.0267 76.0581 55.7811 79.5473C57.5355 83.0365 60.3155 85.9053 63.7483 87.7677C67.1811 89.6301 71.1015 90.3973 74.9827 89.9661C78.8643 89.5353 82.5207 87.9265 85.4611 85.3561C88.4015 82.7861 90.4847 79.3772 91.4307 75.588C92.3767 71.7992 92.1403 67.8112 90.7535 64.1608C89.3667 60.5096 86.8955 57.3708 83.6723 55.1656" stroke="#191919" stroke-width="3" stroke-linecap="round" stroke-linejoin="round"/>
<path d="M9.73872 15.4806C11.2607 15.4806 12.7204 16.0852 13.7966 17.1614C14.8728 18.2376 15.4774 19.6973 15.4774 21.2193V36.5226C15.4774 38.0446 16.0821 39.5043 17.1583 40.5808C18.2345 41.6568 19.6942 42.2612 21.2162 42.2612H27.8196C28.5723 42.2608 29.3082 42.0392 29.9352 41.6224L44.7068 31.8207C45.7384 31.0984 46.9792 30.7355 48.2376 30.7881C49.496 30.8406 50.7016 31.3056 51.6696 32.1114L59.9564 38.9979C60.9876 39.8576 62.2868 40.3288 63.6292 40.3292H74.7776C76.2996 40.3292 77.7596 40.9336 78.8356 42.01C79.912 43.086 80.5164 44.546 80.5164 46.068C80.5164 47.59 79.912 49.05 78.8356 50.126C77.7596 51.2024 76.2996 51.8068 74.7776 51.8068H63.6292C59.6028 51.806 55.704 50.394 52.6108 47.8164L47.6948 43.7228L38.264 49.844C37.727 50.1924 37.2859 50.6696 36.9811 51.2324C36.6763 51.7952 36.5176 52.4252 36.5195 53.0656V84.3452C36.5195 85.8672 35.9148 87.3272 34.8386 88.4032C33.7624 89.4796 32.3027 90.084 30.7807 90.084C29.2588 90.084 27.799 89.4796 26.7228 88.4032C25.6466 87.3272 25.042 85.8672 25.042 84.3452V53.7388H21.2162C16.6517 53.734 12.2757 51.918 9.04808 48.6908C5.82052 45.4632 4.00508 41.0872 4 36.5226V21.2193C4 19.6973 4.6046 18.2376 5.68084 17.1614C6.75704 16.0852 8.21676 15.4806 9.73872 15.4806Z" fill="#7EDCC6"/>
<path d="M9.33024 15.4806C8.67984 23.1705 6.6292 40.1876 15.4783 46.0872C27.6062 54.152 42.2592 36.5226 47.998 36.5226C51.7056 37.2085 55.0744 39.1221 57.5624 41.9552C60.3476 44.6076 64.046 46.0872 67.892 46.0872H80.5172C80.5172 44.5652 79.9128 43.1052 78.8368 42.0292C77.76 40.9528 76.3004 40.3484 74.7784 40.3484H63.63C62.2876 40.348 60.988 39.8767 59.9572 39.017L51.6708 32.1306C50.7028 31.3248 49.4968 30.8597 48.2384 30.8072C46.98 30.7546 45.7396 31.1175 44.7076 31.8398L29.9361 41.6224C29.3091 42.0392 28.5732 42.2608 27.8204 42.2612H21.217C19.6951 42.2612 18.2354 41.6568 17.1592 40.5808C16.083 39.5043 15.4783 38.0446 15.4783 36.5226V21.2193C15.4783 19.6973 14.8737 18.2376 13.7975 17.1614C12.7213 16.0852 11.2616 15.4806 9.7396 15.4806H9.33024Z" fill="#F4FCFA"/>
<path d="M9.73872 15.4806C11.2607 15.4806 12.7204 16.0852 13.7966 17.1614C14.8728 18.2376 15.4774 19.6973 15.4774 21.2193V36.5226C15.4774 38.0446 16.0821 39.5043 17.1583 40.5808C18.2345 41.6568 19.6942 42.2612 21.2162 42.2612H27.8196C28.5723 42.2608 29.3082 42.0392 29.9352 41.6224L44.7068 31.8207C45.7384 31.0984 46.9792 30.7355 48.2376 30.7881C49.496 30.8406 50.7016 31.3056 51.6696 32.1114L59.9564 38.9979C60.9876 39.8576 62.2868 40.3288 63.6292 40.3292H74.7776C76.2996 40.3292 77.7596 40.9336 78.8356 42.01C79.912 43.086 80.5164 44.546 80.5164 46.068C80.5164 47.59 79.912 49.05 78.8356 50.126C77.7596 51.2024 76.2996 51.8068 74.7776 51.8068H63.6292C59.6028 51.806 55.704 50.394 52.6108 47.8164L47.6948 43.7228L38.264 49.844C37.727 50.1924 37.2859 50.6696 36.9811 51.2324C36.6763 51.7952 36.5176 52.4252 36.5195 53.0656V84.3452C36.5195 85.8672 35.9148 87.3272 34.8386 88.4032C33.7624 89.4796 32.3027 90.084 30.7807 90.084C29.2588 90.084 27.799 89.4796 26.7228 88.4032C25.6466 87.3272 25.042 85.8672 25.042 84.3452V53.7388H21.2162C16.6517 53.734 12.2757 51.918 9.04808 48.6908C5.82052 45.4632 4.00508 41.0872 4 36.5226V21.2193C4 19.6973 4.6046 18.2376 5.68084 17.1614C6.75704 16.0852 8.21676 15.4806 9.73872 15.4806Z" stroke="#191919" stroke-width="3" stroke-linecap="round" stroke-linejoin="round"/>
</svg>
