<svg width="24" height="24" viewBox="0 0 24 24" fill="none" xmlns="http://www.w3.org/2000/svg">
<path d="M18.7754 22.4063V16.6111C19.8661 15.6008 20.6782 14.3268 21.1338 12.9118C21.5893 11.4966 21.673 9.98804 21.3765 8.53125" stroke="#FFF1F3" stroke-width="1.8" stroke-linecap="round" stroke-linejoin="round"/>
<path d="M4.27711 8.53125C3.67308 9.9613 3.11716 11.5264 2.49556 13.1378C2.45523 13.2429 2.44105 13.3562 2.45426 13.4681C2.46747 13.5799 2.50766 13.6868 2.57137 13.7796C2.63509 13.8725 2.72041 13.9484 2.82 14.001C2.91959 14.0535 3.03046 14.0811 3.14306 14.0813H4.90056V16.8563C4.90056 17.5922 5.19292 18.298 5.71334 18.8185C6.23375 19.3389 6.93958 19.6313 7.67556 19.6313H9.06306V22.4063" stroke="#FFF1F3" stroke-width="1.8" stroke-linecap="round" stroke-linejoin="round"/>
<path d="M18.0817 2.18112C20.1935 2.68895 21.5505 3.47612 21.5505 4.36875C21.5505 5.90147 17.5129 7.14375 12.5317 7.14375" stroke="#FFF1F3" stroke-width="1.8" stroke-linecap="round" stroke-linejoin="round"/>
<path d="M7.49995 6.9C4.79995 6.3 3.51294 5.04308 3.51294 4.36875C3.51294 2.83603 7.55057 1.59375 12.5317 1.59375" stroke="#FFF1F3" stroke-width="1.8" stroke-linecap="round" stroke-linejoin="round"/>
<path d="M14.6121 4.5L12.3 7.2L14.6121 9.59999" stroke="#FFF1F3" stroke-width="1.8" stroke-linecap="round"/>
</svg>
