<svg width="96" height="96" viewBox="0 0 96 96" fill="none" xmlns="http://www.w3.org/2000/svg">
<path d="M70.1144 53.0848L64.7196 85.6068C64.4216 87.3916 63.5012 89.0132 62.1216 90.1836C60.7416 91.354 58.9912 91.9976 57.182 92H31.1646C29.3557 91.998 27.6061 91.3548 26.2263 90.1852C24.8465 89.0152 23.9257 87.3948 23.6272 85.6104L18.2324 53.0888C22.8292 52.3004 26.9427 49.764 29.7107 46.0104C31.3773 48.2872 33.5572 50.1384 36.0733 51.4144C38.5895 52.6908 41.3712 53.356 44.1924 53.356C47.014 53.356 49.7952 52.6908 52.3116 51.4144C54.828 50.1384 57.0076 48.2872 58.674 46.0104C61.4388 49.7484 65.5348 52.2816 70.1144 53.0848Z" fill="#66E1FF" stroke="#191919" stroke-width="4" stroke-linecap="round" stroke-linejoin="round"/>
<path d="M74.7436 25.3457L70.1144 53.0848C65.534 52.2804 61.438 49.746 58.674 46.0064C57.0076 48.2832 54.828 50.1344 52.3116 51.4104C49.7952 52.6868 47.014 53.3524 44.1924 53.3524C41.3712 53.3524 38.5895 52.6868 36.0734 51.4104C33.5572 50.1344 31.3774 48.2832 29.7107 46.0064C26.9427 49.7604 22.8293 52.2968 18.2325 53.0848L13.6028 25.3457C13.5467 25.0755 13.5555 24.7958 13.6287 24.5297C13.7019 24.2637 13.8373 24.0187 14.0237 23.8153C14.2008 23.6013 14.423 23.429 14.6743 23.3106C14.9256 23.1922 15.1999 23.1307 15.4776 23.1304H72.8688C73.1472 23.1311 73.4216 23.1933 73.6728 23.3123C73.9244 23.4314 74.146 23.6044 74.3228 23.8191C74.5088 24.0221 74.644 24.2664 74.7168 24.5318C74.79 24.7971 74.7992 25.0761 74.7436 25.3457Z" fill="white"/>
<path d="M74.3208 23.8154C74.144 23.6007 73.922 23.4277 73.6704 23.3087C73.4192 23.1896 73.1448 23.1275 72.8668 23.1267H72.7712C72.8132 23.7657 72.8668 24.3969 72.8668 25.0397C72.8656 29.609 71.7716 34.1117 69.6752 38.1718C67.5796 42.232 64.5428 45.7316 60.8184 48.3788C63.3856 50.826 66.6192 52.4592 70.112 53.0736L74.7416 25.3343C74.796 25.0659 74.786 24.7884 74.7128 24.5245C74.6396 24.2606 74.5056 24.0176 74.3208 23.8154Z" fill="#E3E3E3"/>
<path d="M15.4776 25.0434C15.4776 24.3968 15.5312 23.7655 15.5733 23.1304H15.4776C15.1996 23.1311 14.9251 23.1933 14.6738 23.3123C14.4224 23.4314 14.2005 23.6044 14.0237 23.8191C13.8373 24.0225 13.7019 24.2675 13.6287 24.5335C13.5555 24.7996 13.5467 25.0793 13.6028 25.3495L18.2325 53.0888C21.7342 52.4904 24.9779 50.8612 27.549 48.4092C23.8167 45.762 20.7731 42.2592 18.6729 38.1938C16.5727 34.1285 15.477 29.6192 15.4776 25.0434Z" fill="#E3E3E3"/>
<path d="M74.7436 25.3457L70.1144 53.0848C65.534 52.2804 61.438 49.746 58.674 46.0064C57.0076 48.2832 54.828 50.1344 52.3116 51.4104C49.7952 52.6868 47.014 53.3524 44.1924 53.3524C41.3712 53.3524 38.5895 52.6868 36.0734 51.4104C33.5572 50.1344 31.3774 48.2832 29.7107 46.0064C26.9427 49.7604 22.8293 52.2968 18.2325 53.0848L13.6028 25.3457C13.5467 25.0755 13.5555 24.7958 13.6287 24.5297C13.7019 24.2637 13.8373 24.0187 14.0237 23.8153C14.2008 23.6013 14.423 23.429 14.6743 23.3106C14.9256 23.1922 15.1999 23.1307 15.4776 23.1304H72.8688C73.1472 23.1311 73.4216 23.1933 73.6728 23.3123C73.9244 23.4314 74.146 23.6044 74.3228 23.8191C74.5088 24.0221 74.644 24.2664 74.7168 24.5318C74.79 24.7971 74.7992 25.0761 74.7436 25.3457Z" stroke="#191919" stroke-width="4" stroke-linecap="round" stroke-linejoin="round"/>
<path d="M82.4328 4H73.476C70.0332 4.00028 66.6912 5.16132 63.99 7.29548C61.2888 9.42964 59.3856 12.4122 58.5888 15.7614L44.5548 74.7252" stroke="#191919" stroke-width="4" stroke-linecap="round" stroke-linejoin="round"/>
<path d="M70.1496 53.0852H70.1112" stroke="#191919" stroke-width="4" stroke-linecap="round" stroke-linejoin="round"/>
</svg>
