<svg width="256" height="256" viewBox="0 0 256 256" fill="none" xmlns="http://www.w3.org/2000/svg">
<path fill-rule="evenodd" clip-rule="evenodd" d="M256 79.7288C256 76.6897 256.001 73.6504 255.983 70.611C255.967 68.0507 255.938 65.491 255.868 62.932C255.718 57.3544 255.389 51.7289 254.397 46.2134C253.391 40.6184 251.748 35.4111 249.159 30.3275C246.614 25.3309 243.29 20.7586 239.323 16.7947C235.357 12.8307 230.784 9.50832 225.785 6.96479C220.696 4.37529 215.483 2.73304 209.882 1.72737C204.366 0.736929 198.739 0.408542 193.161 0.257863C190.601 0.188582 188.04 0.159378 185.478 0.143533C182.437 0.124893 179.396 0.126446 176.355 0.126446L141.048 0H114.64L79.9568 0.126446C76.91 0.126446 73.8632 0.124893 70.8164 0.143533C68.2496 0.159378 65.684 0.188582 63.1181 0.257863C57.5275 0.408542 51.8878 0.73724 46.3586 1.72893C40.75 2.73428 35.5294 4.37591 30.4336 6.96355C25.4246 9.50738 20.8412 12.8301 16.867 16.7947C12.8934 20.7583 9.56265 25.3296 7.01292 30.3253C4.4169 35.4114 2.77093 40.6218 1.76247 46.22C0.769548 51.7332 0.44054 57.3568 0.289241 62.932C0.22027 65.4913 0.190445 68.051 0.174911 70.611C0.156271 73.6507 0 77.4264 0 80.4657L0.000932032 114.668L0 141.359L0.157824 176.288C0.157824 179.331 0.156581 182.375 0.174911 185.418C0.190445 187.982 0.22027 190.545 0.289551 193.108C0.44054 198.693 0.770169 204.326 1.76403 209.849C2.77217 215.451 4.41783 220.666 7.01168 225.756C9.56172 230.76 12.8931 235.338 16.867 239.308C20.8409 243.277 25.423 246.604 30.4312 249.151C35.53 251.744 40.7531 253.389 46.3652 254.396C51.8918 255.388 57.5297 255.717 63.1181 255.867C65.684 255.937 68.2499 255.966 70.8167 255.982C73.8635 256 76.91 255.999 79.9568 255.999L114.953 256H141.427L176.355 255.999C179.396 255.999 182.437 256 185.478 255.982C188.04 255.966 190.601 255.937 193.161 255.867C198.741 255.716 204.37 255.387 209.889 254.394C215.486 253.388 220.697 251.744 225.783 249.152C230.782 246.605 235.357 243.278 239.323 239.308C243.289 235.339 246.613 230.761 249.158 225.759C251.749 220.666 253.392 215.449 254.398 209.842C255.389 204.322 255.718 198.69 255.869 193.108C255.938 190.545 255.967 187.982 255.983 185.418C256.002 182.375 256 179.331 256 176.288C256 176.288 255.998 141.975 255.998 141.359V114.64C255.998 114.185 256 79.7288 256 79.7288Z" fill="#FAFBFC"/>
<path d="M120.198 33.7064C134.028 32.4616 148.445 33.5875 161.758 37.788C166.83 39.3886 174.975 42.6504 183.256 47.3159C191.488 51.9538 200.215 58.1783 206.093 65.8326C211.872 73.3571 213.669 79.9431 212.31 85.3678C211.908 86.9723 211.252 88.3719 210.437 89.5702C213.067 91.1557 215.169 92.9371 216.807 94.6836C219.541 97.5996 221.234 100.705 221.642 102.838C221.988 104.651 221.313 106.17 220.504 107.15C219.779 108.028 218.89 108.575 218.23 108.912C216.882 109.601 215.219 110.045 213.624 110.349C210.337 110.977 206.085 111.236 201.963 111.053C199.888 110.962 198.513 110.905 197.54 110.871C199.164 126.314 199.861 151.201 195.335 170.73C190.248 192.673 177.352 210.249 164.586 217.411C152.393 224.25 127.137 230.932 105.514 217.297C84.4064 203.987 74.1986 179.114 69.9159 166.847C68.2966 162.209 65.4028 160.256 61.5667 157.514C59.7058 156.184 57.4687 154.547 55.6289 152.266C53.7039 149.88 52.3216 146.941 51.787 143.101C50.0155 130.379 56.2351 122.34 60.7806 119.453C60.7902 119.136 60.7841 118.73 60.7503 118.229C60.6647 116.963 60.4345 115.528 60.1732 114.255C54.1523 110.733 47.9199 103.41 46.364 93.6232C44.5826 82.417 49.0468 69.0345 64.4578 55.2807C76.7282 44.3298 95.6537 36.7641 115.704 34.1964C117.194 34.0055 118.693 33.8418 120.198 33.7064ZM86.898 104.534C83.9031 105.813 81.107 107.094 78.5509 108.332C79.2872 109.8 80.0735 111.572 80.5861 113.33C81.1376 115.221 81.8832 118.355 81.608 120.894C81.4899 121.983 80.9966 124.719 78.3037 125.995C75.6708 127.242 73.1454 126.024 71.8489 125.236C71.2441 124.869 70.2043 124.773 68.6583 125.247C67.9626 125.46 67.3388 125.739 66.8847 125.97C66.7798 126.024 66.6865 126.073 66.6065 126.117C66.313 126.317 65.9873 126.497 65.6253 126.649C65.6426 126.642 65.513 126.698 65.2554 126.878C65.0111 127.049 64.7011 127.297 64.3525 127.631C63.6547 128.3 62.8597 129.259 62.1508 130.52C60.7596 132.995 59.6466 136.724 60.3683 141.907C60.6881 144.203 61.4415 145.672 62.3728 146.827C63.3895 148.087 64.7295 149.125 66.6046 150.465C67.6823 151.235 68.8981 152.074 70.145 153.068C70.8462 152.386 71.7813 151.935 72.8334 151.854C75.2189 151.671 77.3013 153.457 77.4845 155.842C77.6458 157.943 77.8531 160.225 78.0212 161.99C78.1051 162.871 78.1788 163.619 78.2315 164.146C78.2434 164.266 78.2543 164.374 78.2639 164.47C82.5768 176.696 91.99 198.526 110.136 209.968C128.005 221.236 149.621 215.871 160.347 209.854C170.499 204.159 182.218 188.949 186.894 168.773C191.221 150.106 190.459 125.573 188.815 110.77C172.996 110.571 153.382 110.243 138.744 111.498C128.854 112.346 118.412 112.726 109.036 111.696C100.815 110.793 92.8917 108.753 86.898 104.534ZM140.246 166.817C148.448 166.817 153.061 169.881 155.905 171.279C157.283 171.957 157.85 172.056 158.321 172.019C158.824 171.979 159.931 171.711 162.079 170.077C163.984 168.628 166.702 168.998 168.15 170.902C169.599 172.807 169.229 175.525 167.325 176.973C164.512 179.112 161.828 180.434 159 180.656C156.139 180.881 153.831 179.914 152.082 179.055C148.673 177.379 146.019 175.481 140.246 175.481C136.006 175.481 133.415 177.631 128.934 179.878C126.957 180.869 124.252 181.993 121.151 181.574C117.902 181.134 115.219 179.165 112.871 176.231C111.377 174.363 111.68 171.637 113.548 170.142C115.416 168.648 118.142 168.95 119.637 170.819C121.202 172.775 122.077 172.956 122.313 172.988C122.698 173.04 123.405 172.958 125.05 172.133C127.815 170.747 133.306 166.817 140.246 166.817ZM116.353 127.269C123.109 127.423 127.242 131.537 128.83 133.633C130.275 135.54 129.9 138.257 127.993 139.702C126.086 141.147 123.369 140.772 121.924 138.865C121.183 137.887 119.237 136.002 116.156 135.932C114.846 135.902 113.518 136.393 112.313 137.216C111.053 138.077 110.325 139.028 110.171 139.308C109.022 141.407 106.389 142.176 104.291 141.027C102.192 139.878 101.423 137.245 102.572 135.146C103.49 133.469 105.243 131.552 107.427 130.061C109.665 128.532 112.743 127.187 116.353 127.269ZM70.8531 112.311C70.1451 112.703 69.4745 113.083 68.8431 113.449C69.0134 114.371 69.1651 115.349 69.2742 116.324C70.2678 116.23 71.3424 116.232 72.4487 116.408C72.3904 116.187 72.3301 115.968 72.2682 115.756C71.9567 114.688 71.429 113.468 70.8531 112.311ZM101.295 45.9163C88.7792 49.4049 77.8364 54.9537 70.2269 61.7449C56.3035 74.1711 53.7349 84.8017 54.9211 92.2631C55.9772 98.9064 60.1053 103.875 63.838 106.337C65.7394 105.219 67.9734 103.983 70.4918 102.679C70.5357 102.655 70.5799 102.633 70.6244 102.611C74.9645 100.368 80.1405 97.9299 85.9111 95.5523C86.2799 95.4003 86.6514 95.2489 87.0252 95.0975C82.0101 82.7761 85.0583 70.4489 90.6729 60.3365C93.6448 54.9839 97.4061 50.0983 101.295 45.9163ZM200.785 94.6248C192.029 91.7061 182.822 89.9289 165.397 90.0726C157.62 90.1367 149.969 90.4499 136.525 91.4803C124.557 92.3976 109.613 96.0778 97.5494 100.355C101.04 101.662 105.22 102.56 109.982 103.084C118.535 104.023 128.329 103.694 138.004 102.865C154.37 101.462 176.59 101.975 192.699 102.151C196.126 102.189 194.536 102.052 202.346 102.398C205.749 102.548 209.125 102.339 211.596 101.912C211.286 101.509 210.919 101.071 210.487 100.61C208.531 98.5244 205.426 96.172 200.785 94.6248ZM120.246 42.4039C119.452 42.4806 118.66 42.5656 117.87 42.659C111.704 47.1321 103.487 55.1056 98.2478 64.5425C93.3709 73.3265 91.3277 82.8252 95.1326 92.0204C107.649 87.6243 123.118 83.8182 135.863 82.8414C146.681 82.0123 153.865 81.6374 160.397 81.4855C157.896 69.5768 147.893 49.5511 120.246 42.4039ZM142.543 42.5592C160.188 53.7126 167.31 70.5009 169.195 81.4078C184.126 81.5326 193.352 83.1722 202.007 85.9127C202.769 85.4382 203.576 84.5763 203.906 83.2613C204.363 81.4374 204.176 77.5604 199.222 71.1102C194.368 64.7897 186.791 59.2522 179.003 54.8648C171.265 50.505 163.674 47.478 159.15 46.0507C153.803 44.3636 148.222 43.2148 142.543 42.5592Z" fill="#474849"/>
<path d="M170.057 133.837C170.057 137.696 166.928 140.824 163.069 140.824C159.21 140.824 156.082 137.696 156.082 133.837C156.082 129.978 159.21 126.849 163.069 126.849C166.928 126.849 170.057 129.978 170.057 133.837Z" fill="#474849"/>
<path d="M79.2174 116.093C79.2174 119.952 76.0891 123.081 72.2301 123.081C68.371 123.081 65.2427 119.952 65.2427 116.093C65.2427 112.234 68.371 109.106 72.2301 109.106C76.0891 109.106 79.2174 112.234 79.2174 116.093Z" fill="#474849"/>
<path d="M128.824 31.5028C129.356 35.6576 125.501 39.5752 120.213 40.2529C114.926 40.9307 110.207 38.112 109.675 33.9572C109.142 29.8024 112.997 25.8848 118.285 25.207C123.573 24.5293 128.291 27.348 128.824 31.5028Z" fill="#474849"/>
</svg>
